<svg viewBox="0 0 70 56" fill="none" xmlns="http://www.w3.org/2000/svg">
<path d="M0 54.8203H69.3606V55.4776H0V54.8203Z" fill="#B8B7B7"/>
<path d="M10.8097 55.3072H2.61328V42.6645H3.27054V54.6499H10.1602V33.6562H3.27054V40.0432H2.61328V33.0066H10.8097V55.3072ZM21.1481 28.7383H21.8054V32.1715H21.1481V28.7383Z" fill="#B8B7B7"/>
<path d="M19.3386 55.3072H10.1602V28.7383H10.8097V54.6499H19.3386V55.3072ZM21.1481 39.3859H21.8053V52.3456H21.1481V39.3859ZM47.5546 39.3859H48.2118V52.3456H47.5546V39.3859ZM59.3621 55.4696H47.5546V55.1448L47.8793 55.1371V54.82H58.7049V28.7383H59.3621V55.4696ZM47.5546 28.7383H48.2118V32.1715H47.5546V28.7383Z" fill="#B8B7B7"/>
<path d="M60.7571 29.0635H46.1659V26.04H60.7571V29.0635ZM46.8386 28.4139H60.1076V26.6741H46.8154L46.8386 28.4139ZM66.7498 55.47H58.708V33.007H66.7498V40.0436H66.0925V33.6566H59.3653V54.8205H66.0925V42.6649H66.7498V55.47ZM23.2776 29.0635H8.68637V26.04H23.2776V29.0635ZM9.3591 28.4139H22.6281V26.6741H9.34363L9.3591 28.4139ZM10.751 42.9897H1.40234V39.7111H10.751V42.9897ZM2.05961 42.3402H10.0937V40.3684H2.05961V42.3402Z" fill="#B8B7B7"/>
<path d="M68.1533 42.9894H58.8046V39.7108H68.1533V42.9894ZM59.4619 42.3398H67.496V40.368H59.4619V42.3398ZM8.44279 55.3459H5.17194V45.6725C5.20045 45.2582 5.38514 44.8702 5.6887 44.5868C5.99227 44.3034 6.39208 44.1458 6.80737 44.1458C7.22266 44.1458 7.62247 44.3034 7.92603 44.5868C8.2296 44.8702 8.41429 45.2582 8.44279 45.6725V55.3459ZM5.82921 54.6886H7.78553V45.6725C7.76378 45.4281 7.65131 45.2007 7.47028 45.0351C7.28924 44.8694 7.05275 44.7776 6.80737 44.7776C6.56199 44.7776 6.3255 44.8694 6.14446 45.0351C5.96342 45.2007 5.85096 45.4281 5.82921 45.6725V54.6886ZM8.62064 38.6514H4.80078V36.3317C4.80078 35.9215 4.96372 35.5281 5.25374 35.2381C5.54377 34.9481 5.93713 34.7852 6.34728 34.7852H7.01228C7.42244 34.7852 7.8158 34.9481 8.10582 35.2381C8.39585 35.5281 8.55878 35.9215 8.55878 36.3317L8.62064 38.6514ZM5.45804 37.9941H7.96338V36.3703C7.96338 36.1263 7.86643 35.8922 7.69387 35.7197C7.5213 35.5471 7.28725 35.4501 7.04321 35.4501H6.37821C6.13417 35.4501 5.90012 35.5471 5.72756 35.7197C5.55499 35.8922 5.45804 36.1263 5.45804 36.3703V37.9941ZM64.4571 55.3459H61.1863V45.6725C61.2148 45.2582 61.3995 44.8702 61.703 44.5868C62.0066 44.3034 62.4064 44.1458 62.8217 44.1458C63.237 44.1458 63.6368 44.3034 63.9404 44.5868C64.2439 44.8702 64.4286 45.2582 64.4571 45.6725V55.3459ZM61.859 54.6886H63.8153V45.6725C63.7936 45.4281 63.6811 45.2007 63.5001 45.0351C63.319 44.8694 63.0825 44.7776 62.8372 44.7776C62.5918 44.7776 62.3553 44.8694 62.1742 45.0351C61.9932 45.2007 61.8807 45.4281 61.859 45.6725V54.6886ZM64.635 38.6514H60.8151V36.3317C60.8151 35.9215 60.978 35.5281 61.2681 35.2381C61.5581 34.9481 61.9514 34.7852 62.3616 34.7852H63.0266C63.4368 34.7852 63.8301 34.9481 64.1201 35.2381C64.4102 35.5281 64.5731 35.9215 64.5731 36.3317L64.635 38.6514ZM61.4724 37.9941H63.9777V36.3703C63.9777 36.1263 63.8808 35.8922 63.7082 35.7197C63.5356 35.5471 63.3016 35.4501 63.0575 35.4501H62.3925C62.1485 35.4501 61.9144 35.5471 61.7419 35.7197C61.5693 35.8922 61.4724 36.1263 61.4724 36.3703V37.9941ZM50.3453 39.7108H19.0131V36.2698H50.3453V39.7108ZM19.6704 39.0535H49.688V36.9271H19.6704V39.0535ZM50.3453 55.4619H19.0131V52.0132H50.3453V55.4619ZM19.6704 54.8046H49.688V52.6705H19.6704V54.8046Z" fill="#B8B7B7"/>
<path d="M52.0658 36.9274H17.2695L21.0353 31.8394H48.3001L52.0658 36.9274ZM18.5995 36.2701H50.759L47.9444 32.4967H21.3987L18.5995 36.2701ZM24.6773 22.166H44.689V22.8233H24.6773V22.166Z" fill="#B8B7B7"/>
<path d="M45.0089 32.4965H24.3398V25.8079H24.9971V31.8392H44.3516V25.3594H45.0089V32.4965Z" fill="#B8B7B7"/>
<path d="M44.8483 26.2643H24.4963L23.522 22.1738H45.838L44.8483 26.2643ZM24.9989 25.6071H44.3302L44.9952 22.8156H24.3494L24.9989 25.6071ZM25.6562 30.3626H26.3134V32.3653H25.6562V30.3626ZM27.2955 30.3626H27.9527V32.3653H27.2955V30.3626ZM28.9347 30.3626H29.592V32.3653H28.9347V30.3626ZM30.574 30.3626H31.2313V32.3653H30.574V30.3626ZM2.61328 31.5147H3.27054V33.5174H2.61328V31.5147ZM4.25257 31.5147H4.90984V33.5174H4.25257V31.5147ZM5.89187 31.5147H6.54913V33.5174H5.89187V31.5147ZM7.53116 31.5147H8.18842V33.5174H7.53116V31.5147ZM61.1639 31.5147H61.8211V33.5174H61.1639V31.5147ZM62.8109 31.5147H63.4682V33.5174H62.8109V31.5147ZM64.4502 31.5147H65.1074V33.5174H64.4502V31.5147ZM66.0895 31.5147H66.7467V33.5174H66.0895V31.5147ZM38.121 30.3626H38.7782V32.3653H38.121V30.3626ZM39.7603 30.3626H40.4175V32.3653H39.7603V30.3626ZM41.3996 30.3626H42.0568V32.3653H41.3996V30.3626ZM43.0466 30.3626H43.7038V32.3653H43.0466V30.3626ZM37.4482 32.5122H31.8731V28.5763H33.0175C33.0138 28.5197 33.0138 28.4629 33.0175 28.4062C33.0216 27.9734 33.1958 27.5596 33.5026 27.2543C33.8094 26.949 34.224 26.7767 34.6568 26.7747C34.875 26.7695 35.0921 26.8078 35.2954 26.8873C35.4987 26.9668 35.6842 27.086 35.841 27.2378C35.9979 27.3896 36.123 27.5711 36.2091 27.7717C36.2952 27.9723 36.3405 28.188 36.3425 28.4062C36.3463 28.4603 36.3463 28.5146 36.3425 28.5686H37.5101L37.4482 32.5122ZM32.5304 31.824H36.7987V29.195H35.3914L35.5847 28.7465C35.6432 28.5971 35.6648 28.4359 35.6477 28.2765C35.6306 28.117 35.5754 27.9641 35.4866 27.8305C35.3978 27.697 35.2781 27.5868 35.1377 27.5093C34.9973 27.4319 34.8403 27.3894 34.68 27.3855C34.4171 27.3852 34.1645 27.4879 33.9763 27.6716C33.8414 27.8082 33.7491 27.9811 33.7107 28.1691C33.6722 28.3572 33.6893 28.5524 33.7598 28.731L33.9454 29.1872H32.5458L32.5304 31.824ZM18.6892 48.4644H12.9439V40.6159H18.6892V48.4644ZM13.6012 47.8071H18.0319V41.2731H13.6012V47.8071ZM56.331 48.4644H50.5858V40.6159H56.331V48.4644ZM51.243 47.8071H55.6738V41.2731H51.243V47.8071Z" fill="#B8B7B7"/>
<path d="M15.8116 41.1883C15.4213 41.1883 15.0398 41.0725 14.7154 40.8555C14.3909 40.6385 14.1382 40.3301 13.9892 39.9693C13.8402 39.6086 13.8016 39.2117 13.8783 38.829C13.955 38.4463 14.1436 38.095 14.4201 37.8195C14.6966 37.5441 15.0487 37.3569 15.4317 37.2817C15.8147 37.2065 16.2114 37.2467 16.5716 37.3971C16.9317 37.5475 17.2391 37.8014 17.4549 38.1267C17.6706 38.452 17.7849 38.834 17.7834 39.2243C17.7834 39.4829 17.7324 39.7389 17.6332 39.9777C17.534 40.2165 17.3886 40.4333 17.2054 40.6158C17.0222 40.7983 16.8048 40.9428 16.5656 41.0411C16.3264 41.1393 16.0702 41.1894 15.8116 41.1883ZM15.8116 37.9097C15.5516 37.9097 15.2975 37.9868 15.0813 38.1313C14.8651 38.2757 14.6966 38.481 14.5972 38.7212C14.4977 38.9614 14.4716 39.2257 14.5224 39.4807C14.5731 39.7357 14.6983 39.97 14.8821 40.1538C15.0659 40.3376 15.3002 40.4628 15.5552 40.5135C15.8102 40.5643 16.0745 40.5382 16.3147 40.4387C16.5549 40.3392 16.7602 40.1708 16.9046 39.9546C17.0491 39.7384 17.1261 39.4843 17.1261 39.2243C17.1261 38.8756 16.9877 38.5413 16.7411 38.2948C16.4946 38.0482 16.1603 37.9097 15.8116 37.9097ZM53.4535 41.1883C53.0632 41.1883 52.6816 41.0725 52.3572 40.8555C52.0328 40.6385 51.7801 40.3301 51.6311 39.9693C51.4821 39.6086 51.4435 39.2117 51.5202 38.829C51.5969 38.4463 51.7854 38.095 52.062 37.8195C52.3385 37.5441 52.6906 37.3569 53.0736 37.2817C53.4566 37.2065 53.8533 37.2467 54.2134 37.3971C54.5736 37.5475 54.881 37.8014 55.0967 38.1267C55.3125 38.452 55.4268 38.834 55.4253 39.2243C55.4253 39.4829 55.3742 39.7389 55.275 39.9777C55.1759 40.2165 55.0305 40.4333 54.8473 40.6158C54.6641 40.7983 54.4467 40.9428 54.2075 41.0411C53.9683 41.1393 53.7121 41.1894 53.4535 41.1883ZM53.4535 37.9097C53.1935 37.9097 52.9394 37.9868 52.7232 38.1313C52.507 38.2757 52.3385 38.481 52.239 38.7212C52.1395 38.9614 52.1135 39.2257 52.1642 39.4807C52.2149 39.7357 52.3401 39.97 52.524 40.1538C52.7078 40.3376 52.942 40.4628 53.197 40.5135C53.452 40.5643 53.7163 40.5382 53.9565 40.4387C54.1967 40.3392 54.402 40.1708 54.5465 39.9546C54.6909 39.7384 54.768 39.4843 54.768 39.2243C54.768 38.8756 54.6295 38.5413 54.383 38.2948C54.1365 38.0482 53.8021 37.9097 53.4535 37.9097ZM40.8959 20.1095H28.462C27.5711 20.1095 26.7163 19.7578 26.0835 19.1308C25.4507 18.5037 25.0911 17.6522 25.0829 16.7613C25.0829 14.1787 27.1707 12.4002 29.1966 10.6836C29.8384 10.1346 30.4415 9.61649 30.9828 9.07521L31.0833 8.98242H38.2746L38.3674 9.07521C38.9628 9.67062 39.6278 10.2428 40.2696 10.7918C42.2413 12.4621 44.275 14.2019 44.275 16.7613C44.2668 17.6522 43.9072 18.5037 43.2744 19.1308C42.6416 19.7578 41.7868 20.1095 40.8959 20.1095ZM31.354 9.61649C30.8127 10.1423 30.2096 10.6604 29.6219 11.163C27.712 12.7868 25.7556 14.4648 25.7556 16.7381C25.7577 17.4594 26.0451 18.1505 26.5551 18.6605C27.0651 19.1705 27.7562 19.4579 28.4775 19.46H40.8959C41.6131 19.458 42.3008 19.1738 42.8102 18.6688C43.3195 18.1637 43.6096 17.4785 43.6177 16.7613C43.6177 14.5034 41.7851 12.9415 39.8443 11.2867C39.2257 10.7609 38.5839 10.2119 38.0039 9.63969L31.354 9.61649Z" fill="#B8B7B7"/>
<path d="M41.9818 22.8159H27.3828V19.375H41.9818V22.8159ZM28.0633 22.1664H41.3245V20.0322H28.0401L28.0633 22.1664ZM38.5331 9.53148H30.1588V6.91016H38.5331V9.53148ZM30.8006 8.87421H37.8913V7.56742H30.8238L30.8006 8.87421Z" fill="#B8B7B7"/>
<path d="M35.8548 7.56706H32.6612C32.4985 7.51797 32.35 7.43045 32.2282 7.31188C32.1836 7.27047 32.1519 7.2171 32.1368 7.15814C32.1217 7.09918 32.1239 7.03713 32.1432 6.97939C32.0987 6.91757 32.0698 6.84589 32.059 6.77048C32.0482 6.69507 32.0559 6.61817 32.0813 6.54637C32.1011 6.50574 32.1244 6.46693 32.1509 6.43038V6.38398C32.1344 6.33341 32.1215 6.28173 32.1122 6.22933C32.0921 6.07616 32.109 5.9204 32.1615 5.7751C32.2139 5.6298 32.3005 5.49919 32.4138 5.39422L32.5298 5.27823C32.6162 5.20042 32.6894 5.109 32.7463 5.0076C32.8118 4.748 32.7816 4.47349 32.6612 4.23434L32.4757 3.65441C32.3939 3.44829 32.3672 3.22443 32.3983 3.00487C32.1875 2.82228 32.0027 2.61153 31.8493 2.37854C31.8022 2.32063 31.7765 2.24827 31.7765 2.17363C31.7765 2.09899 31.8022 2.02663 31.8493 1.96872L32.1973 1.59756C32.3609 1.40337 32.5674 1.24984 32.8004 1.14907C32.9406 1.08492 33.0959 1.06083 33.2489 1.07948C33.2701 0.938132 33.3415 0.809135 33.45 0.716051C33.499 0.679117 33.5558 0.653687 33.616 0.641641C33.6763 0.629595 33.7384 0.631241 33.7979 0.646458L33.9294 0.592331C34.152 0.53073 34.3872 0.53073 34.6098 0.592331H34.7954C34.8786 0.53766 34.9784 0.513908 35.0773 0.525212C35.1762 0.536516 35.268 0.582159 35.3367 0.654191C35.385 0.707827 35.4189 0.772882 35.4351 0.843228C35.4514 0.913573 35.4494 0.986893 35.4295 1.05628C35.4984 1.01109 35.579 0.986914 35.6615 0.986689C35.7919 0.986868 35.918 1.03347 36.0172 1.11814C36.3639 1.33538 36.6509 1.63571 36.8523 1.99192C36.9381 2.12786 36.969 2.29133 36.9389 2.44924C36.9087 2.60715 36.8197 2.74771 36.6899 2.84249L36.5894 2.89662C36.5236 2.99964 36.4214 3.07417 36.3033 3.1054C36.3301 3.28741 36.3301 3.47239 36.3033 3.65441C36.2635 3.82704 36.2145 3.99741 36.1563 4.16475C36.0361 4.40355 35.998 4.67536 36.0481 4.938C36.1094 5.05652 36.1905 5.16373 36.2878 5.25504L36.427 5.40969C36.6011 5.59611 36.7172 5.82916 36.7611 6.08042C36.805 6.33168 36.7749 6.59029 36.6744 6.82474C36.5922 6.96443 36.4877 7.0898 36.3651 7.1959C36.3002 7.24974 36.243 7.31218 36.195 7.38148C36.1935 7.39949 36.1935 7.41759 36.195 7.4356C36.1566 7.48755 36.1042 7.5275 36.044 7.55078C35.9837 7.57405 35.9181 7.5797 35.8548 7.56706ZM32.8778 6.90979H35.6847C35.7465 6.83247 35.8161 6.77061 35.8702 6.70875C35.9443 6.651 36.0071 6.58025 36.0558 6.49997C36.0918 6.38118 36.0943 6.25474 36.0629 6.13465C36.0315 6.01455 35.9675 5.90548 35.878 5.81951L35.762 5.68806C35.6098 5.53639 35.4866 5.3582 35.3986 5.16225C35.2842 4.762 35.3171 4.33402 35.4913 3.95597C35.5446 3.82064 35.586 3.68093 35.6151 3.53842C35.661 3.27408 35.6174 3.00199 35.4913 2.76517C35.4596 2.70296 35.4478 2.63249 35.4574 2.56332C35.4671 2.49415 35.4979 2.42964 35.5455 2.37854C35.5945 2.33032 35.6572 2.29848 35.7251 2.2874C35.7929 2.27632 35.8626 2.28655 35.9244 2.31668L36.1254 2.4172C36.161 2.38333 36.2031 2.35703 36.2491 2.33988C36.1058 2.10489 35.91 1.90637 35.6769 1.75994C35.6372 1.79626 35.593 1.82744 35.5455 1.85273C35.4108 1.92148 35.2545 1.9349 35.1101 1.89012C34.9657 1.84534 34.8444 1.74591 34.7722 1.61302C34.7294 1.5131 34.7108 1.40446 34.7181 1.29599C34.6311 1.28861 34.5454 1.27042 34.4629 1.24186H34.4011C34.2949 1.21177 34.1825 1.21177 34.0763 1.24186C34.012 1.27416 33.9446 1.30006 33.8752 1.31919L33.8057 1.65168C33.7932 1.71731 33.7603 1.77731 33.7117 1.82313C33.6631 1.86896 33.6013 1.89826 33.535 1.90686C33.4693 1.91814 33.4018 1.90943 33.3411 1.88186C33.2805 1.85428 33.2295 1.80911 33.1948 1.75221C33.1741 1.74304 33.1517 1.73831 33.1291 1.73831C33.1064 1.73831 33.084 1.74304 33.0633 1.75221C32.9291 1.82287 32.8107 1.92023 32.7154 2.03831L32.553 2.21616L32.6535 2.33988C32.7305 2.30931 32.8162 2.30931 32.8932 2.33988C32.9999 2.38456 33.0868 2.4663 33.138 2.57004C33.1892 2.67378 33.2011 2.79251 33.1716 2.90435C33.1511 2.97327 33.1252 3.04049 33.0943 3.1054V3.15179C33.0906 3.26079 33.1117 3.36921 33.1561 3.46883L33.3494 4.0565C33.5315 4.44211 33.5537 4.88403 33.4113 5.28597C33.3248 5.45841 33.2068 5.61315 33.0633 5.74218L32.9705 5.84271C32.8901 5.91513 32.838 6.0138 32.8236 6.12108V6.1984C32.8551 6.2744 32.8713 6.35585 32.8713 6.43811C32.8713 6.52037 32.8551 6.60182 32.8236 6.67782C32.8483 6.71056 32.8659 6.74812 32.8753 6.78807C32.8846 6.82803 32.8854 6.86949 32.8778 6.90979ZM12.3711 30.231H13.0284V32.0405H12.3711V30.231ZM14.0104 30.231H14.6677V32.0405H14.0104V30.231ZM15.6497 30.231H16.307V32.0405H15.6497V30.231ZM17.289 30.231H17.9463V32.0405H17.289V30.231ZM18.9283 30.231H19.5856V32.0405H18.9283V30.231ZM49.8506 30.231H50.5079V32.0405H49.8506V30.231ZM51.4899 30.231H52.1472V32.0405H51.4899V30.231ZM53.1292 30.231H53.7865V32.0405H53.1292V30.231ZM54.7685 30.231H55.4258V32.0405H54.7685V30.231ZM56.4078 30.231H57.0651V32.0405H56.4078V30.231ZM26.1505 52.6708H23.5214L23.6915 39.0538H26.0113L26.1505 52.6708ZM24.1864 52.0135H25.5164L25.3618 39.7111H24.3411L24.1864 52.0135ZM29.4368 52.6708H26.8L26.9701 39.0538H29.2899L29.4368 52.6708ZM27.465 52.0135H28.7718L28.6094 39.7111H27.6196L27.465 52.0135ZM32.7154 52.6708H30.0786L30.2564 39.0538H32.5375L32.7154 52.6708ZM30.7436 52.0135H32.0504L31.8957 39.7111H30.9292L30.7436 52.0135ZM35.994 52.6708H33.3649L33.535 39.0538H35.8548L35.994 52.6708ZM34.0222 52.0135H35.329L35.1743 39.7111H34.1845L34.0222 52.0135ZM39.2725 52.6708H36.6435L36.8136 39.0538H39.1334L39.2725 52.6708ZM37.3085 52.0135H38.6075L38.4529 39.7111H37.4631L37.3085 52.0135ZM42.5279 52.6708H39.8989L40.069 39.0538H42.3887L42.5279 52.6708ZM40.5639 52.0135H41.8707L41.7547 39.7111H40.7417L40.5639 52.0135ZM45.8374 52.6708H43.2007L43.3785 39.0538H45.6596L45.8374 52.6708ZM43.8657 52.0135H45.1724L45.0178 39.7111H44.0203L43.8657 52.0135ZM21.9053 26.6432C21.8644 26.6506 21.8225 26.6506 21.7816 26.6432C21.7009 26.609 21.6369 26.5444 21.6036 26.4633C21.5703 26.3822 21.5703 26.2912 21.6038 26.2101C21.8451 25.6131 21.9685 24.9751 21.9672 24.3311C21.9655 23.7972 21.837 23.2714 21.5924 22.7968C21.3477 22.3223 20.9938 21.9126 20.5599 21.6016C19.567 20.8907 18.652 20.0769 17.8303 19.1736C17.1302 18.4103 16.5012 17.5846 15.9513 16.7069C14.755 18.6296 13.1948 20.3001 11.3582 21.6248C10.9444 21.9343 10.606 22.3335 10.3684 22.7924C10.119 23.2697 9.98901 23.8003 9.98952 24.3389C9.98706 24.9837 10.1132 25.6225 10.3607 26.2179C10.3916 26.3001 10.3895 26.391 10.355 26.4717C10.3204 26.5524 10.2559 26.6166 10.1751 26.6509C10.135 26.6671 10.0921 26.6751 10.0489 26.6746C10.0057 26.674 9.96307 26.6648 9.92346 26.6475C9.88385 26.6302 9.84809 26.6052 9.81827 26.5739C9.78846 26.5426 9.76518 26.5057 9.74981 26.4653C9.47397 25.7906 9.33468 25.0678 9.33999 24.3389C9.3372 23.699 9.48837 23.0678 9.78074 22.4985C10.0665 21.9499 10.4738 21.4739 10.9715 21.1067C12.8858 19.7259 14.4856 17.9548 15.6652 15.9104L15.9436 15.4156L16.2297 15.9104C16.8207 16.9249 17.518 17.8736 18.3097 18.7405C19.1053 19.6037 19.989 20.3812 20.9465 21.0603C21.4641 21.4329 21.886 21.923 22.1777 22.4902C22.4694 23.0574 22.6225 23.6856 22.6244 24.3234C22.6273 25.0529 22.4854 25.7756 22.2069 26.4499C22.182 26.5087 22.1398 26.5587 22.086 26.5932C22.0322 26.6277 21.9692 26.6451 21.9053 26.6432Z" fill="#B8B7B7"/>
<path d="M10.0508 25.9861H21.9047V26.6434H10.0508V25.9861ZM59.3842 26.6434C59.3433 26.6508 59.3014 26.6508 59.2605 26.6434C59.1797 26.6092 59.1158 26.5446 59.0824 26.4635C59.0491 26.3824 59.0492 26.2914 59.0826 26.2104C59.3239 25.6134 59.4474 24.9753 59.4461 24.3314C59.4444 23.7975 59.3159 23.2716 59.0713 22.797C58.8266 22.3225 58.4727 21.9128 58.0387 21.6018C57.0458 20.8909 56.1309 20.0771 55.3092 19.1738C54.6079 18.4031 53.9789 17.5697 53.4302 16.6839C52.2339 18.6066 50.6737 20.2772 48.8371 21.6018C48.4232 21.9133 48.0827 22.3119 47.8396 22.7694C47.5926 23.2473 47.4652 23.778 47.4684 24.3159C47.4671 24.9598 47.5905 25.5979 47.8318 26.1949C47.8653 26.2759 47.8653 26.3669 47.832 26.448C47.7987 26.5291 47.7347 26.5938 47.654 26.6279C47.6139 26.6441 47.571 26.6522 47.5278 26.6516C47.4846 26.651 47.442 26.6418 47.4023 26.6245C47.3627 26.6072 47.327 26.5822 47.2972 26.5509C47.2673 26.5196 47.2441 26.4827 47.2287 26.4423C46.9502 25.7681 46.8083 25.0454 46.8111 24.3159C46.8111 23.6754 46.9649 23.0442 47.2596 22.4756C47.5453 21.9269 47.9526 21.4509 48.4504 21.0837C50.3643 19.7047 51.9618 17.9332 53.1363 15.8875L53.4224 15.3926L53.7085 15.8875C54.2996 16.9019 54.9969 17.8506 55.7886 18.7176C56.5824 19.5825 57.4663 20.3602 58.4254 21.0373C58.9416 21.4113 59.3625 21.9016 59.6541 22.4685C59.9456 23.0354 60.0995 23.663 60.1033 24.3004C60.1062 25.0299 59.9643 25.7527 59.6858 26.4269C59.6637 26.4895 59.6229 26.5438 59.569 26.5825C59.5151 26.6212 59.4506 26.6424 59.3842 26.6434Z" fill="#B8B7B7"/>
<path d="M47.5323 25.986H59.3862V26.6432H47.5323V25.986ZM37.4104 20.0165C37.3698 20.0263 37.3274 20.0263 37.2867 20.0165C37.247 20.0004 37.2109 19.9766 37.1804 19.9464C37.15 19.9163 37.1258 19.8804 37.1092 19.8409C37.0927 19.8013 37.0842 19.7589 37.0841 19.7161C37.084 19.6732 37.0925 19.6308 37.1089 19.5912C37.207 19.345 37.2594 19.083 37.2635 18.8179C37.2629 18.5992 37.2108 18.3838 37.1114 18.189C37.012 17.9942 36.8681 17.8255 36.6913 17.6967C36.2204 17.3635 35.7874 16.9797 35.4 16.5523C35.1227 16.2598 34.8644 15.9499 34.6267 15.6244C34.0842 16.4307 33.4036 17.1348 32.6163 17.7045C32.4482 17.8344 32.3087 17.9976 32.2064 18.1839C32.1045 18.3797 32.0515 18.5972 32.0518 18.8179C32.0559 19.083 32.1083 19.345 32.2064 19.5912C32.2393 19.6712 32.239 19.7609 32.2056 19.8407C32.1723 19.9204 32.1086 19.9837 32.0286 20.0165C31.9486 20.0493 31.8589 20.049 31.7791 20.0156C31.6994 19.9823 31.6361 19.9186 31.6033 19.8386C31.4653 19.5079 31.3943 19.1531 31.3945 18.7947C31.3969 18.4689 31.4764 18.1483 31.6265 17.8591C31.7678 17.5816 31.9716 17.3407 32.2219 17.1555C33.0837 16.5401 33.8057 15.7496 34.3406 14.8357L34.619 14.3408L34.9051 14.8357C35.1739 15.2929 35.4901 15.7206 35.8485 16.1116C36.2055 16.502 36.602 16.8544 37.0315 17.1632C37.2889 17.3452 37.5003 17.5846 37.6493 17.8624C37.7983 18.1401 37.8806 18.4488 37.8898 18.7638C37.889 19.1213 37.8208 19.4755 37.6888 19.8077C37.6662 19.8648 37.6282 19.9146 37.5791 19.9514C37.53 19.9883 37.4716 20.0108 37.4104 20.0165Z" fill="#B8B7B7"/>
<path d="M31.9414 19.3594H37.4083V20.0166H31.9414V19.3594Z" fill="#B8B7B7"/>
</svg>
